<mxfile host="app.diagrams.net" modified="2024-05-12T01:39:59.885Z" agent="Mozilla/5.0 (Windows NT 10.0; Win64; x64; rv:125.0) Gecko/20100101 Firefox/125.0" etag="uQyETB3l0aFmT2lTNdh3" version="24.4.0" type="device">
  <diagram name="ページ1" id="6O8cq4Rfigk1k-ii5kAo">
    <mxGraphModel dx="2226" dy="1904" grid="1" gridSize="10" guides="1" tooltips="1" connect="1" arrows="1" fold="1" page="1" pageScale="1" pageWidth="827" pageHeight="1169" math="0" shadow="0">
      <root>
        <mxCell id="0" />
        <object label="ソフトウェア" id="ExSx5SIZApUU_Iw7rpWn-6">
          <mxCell style="locked=1;" parent="0" />
        </object>
        <mxCell id="ExSx5SIZApUU_Iw7rpWn-7" value="&lt;font style=&quot;font-size: 18px;&quot;&gt;Controller Node&lt;/font&gt;" style="rounded=1;whiteSpace=wrap;html=1;fillColor=#dae8fc;strokeColor=#6c8ebf;" parent="ExSx5SIZApUU_Iw7rpWn-6" vertex="1">
          <mxGeometry x="-550" y="120" width="390" height="40" as="geometry" />
        </mxCell>
        <mxCell id="ExSx5SIZApUU_Iw7rpWn-8" value="&lt;font style=&quot;font-size: 18px;&quot;&gt;Baremetal Node&lt;/font&gt;" style="rounded=1;whiteSpace=wrap;html=1;fillColor=#dae8fc;strokeColor=#6c8ebf;" parent="ExSx5SIZApUU_Iw7rpWn-6" vertex="1">
          <mxGeometry x="160" y="120" width="240" height="40" as="geometry" />
        </mxCell>
        <mxCell id="ExSx5SIZApUU_Iw7rpWn-9" value="&lt;div style=&quot;font-size: 18px;&quot;&gt;&lt;font style=&quot;font-size: 18px;&quot;&gt;Gateway&lt;/font&gt;&lt;/div&gt;" style="rounded=1;whiteSpace=wrap;html=1;fillColor=#dae8fc;strokeColor=#6c8ebf;" parent="ExSx5SIZApUU_Iw7rpWn-6" vertex="1">
          <mxGeometry x="440" y="120" width="240" height="40" as="geometry" />
        </mxCell>
        <mxCell id="ExSx5SIZApUU_Iw7rpWn-39" value="&lt;font style=&quot;font-size: 14px;&quot;&gt;CentOS 8 Stream&lt;/font&gt;" style="rounded=1;whiteSpace=wrap;html=1;fillColor=#008a00;strokeColor=#005700;fontColor=#ffffff;" parent="ExSx5SIZApUU_Iw7rpWn-6" vertex="1">
          <mxGeometry x="440" y="70" width="240" height="40" as="geometry" />
        </mxCell>
        <mxCell id="ExSx5SIZApUU_Iw7rpWn-40" value="&lt;font style=&quot;font-size: 14px;&quot;&gt;CentOS 8 Stream&lt;/font&gt;" style="rounded=1;whiteSpace=wrap;html=1;fillColor=#008a00;strokeColor=#005700;fontColor=#ffffff;" parent="ExSx5SIZApUU_Iw7rpWn-6" vertex="1">
          <mxGeometry x="160" y="70" width="240" height="40" as="geometry" />
        </mxCell>
        <mxCell id="ExSx5SIZApUU_Iw7rpWn-41" value="&lt;font style=&quot;font-size: 14px;&quot;&gt;CentOS 8 Stream&lt;/font&gt;" style="rounded=1;whiteSpace=wrap;html=1;fillColor=#008a00;strokeColor=#005700;fontColor=#ffffff;" parent="ExSx5SIZApUU_Iw7rpWn-6" vertex="1">
          <mxGeometry x="-550" y="70" width="390" height="40" as="geometry" />
        </mxCell>
        <mxCell id="ExSx5SIZApUU_Iw7rpWn-43" value="&lt;div&gt;DNSサーバ&lt;/div&gt;" style="rounded=1;whiteSpace=wrap;html=1;fillColor=#1ba1e2;strokeColor=#006EAF;fontColor=#ffffff;" parent="ExSx5SIZApUU_Iw7rpWn-6" vertex="1">
          <mxGeometry x="440" y="20" width="240" height="40" as="geometry" />
        </mxCell>
        <mxCell id="ExSx5SIZApUU_Iw7rpWn-44" value="NTPサーバ" style="rounded=1;whiteSpace=wrap;html=1;fillColor=#1ba1e2;strokeColor=#006EAF;fontColor=#ffffff;" parent="ExSx5SIZApUU_Iw7rpWn-6" vertex="1">
          <mxGeometry x="440" y="-30" width="240" height="40" as="geometry" />
        </mxCell>
        <mxCell id="ExSx5SIZApUU_Iw7rpWn-46" value="Keystone" style="rounded=1;whiteSpace=wrap;html=1;fillColor=#e3c800;strokeColor=#B09500;fontColor=#000000;" parent="ExSx5SIZApUU_Iw7rpWn-6" vertex="1">
          <mxGeometry x="-400" y="20" width="240" height="40" as="geometry" />
        </mxCell>
        <mxCell id="ExSx5SIZApUU_Iw7rpWn-49" value="RabbitMQ" style="rounded=1;whiteSpace=wrap;html=1;fillColor=#1ba1e2;strokeColor=#006EAF;direction=north;textDirection=vertical-rl;rotation=-180;fontColor=#ffffff;" parent="ExSx5SIZApUU_Iw7rpWn-6" vertex="1">
          <mxGeometry x="-550" y="-530" width="40" height="590" as="geometry" />
        </mxCell>
        <mxCell id="ExSx5SIZApUU_Iw7rpWn-51" value="MariaDB" style="rounded=1;whiteSpace=wrap;html=1;fillColor=#1ba1e2;strokeColor=#006EAF;direction=north;textDirection=vertical-rl;rotation=-180;fontColor=#ffffff;" parent="ExSx5SIZApUU_Iw7rpWn-6" vertex="1">
          <mxGeometry x="-500" y="-530" width="40" height="590" as="geometry" />
        </mxCell>
        <mxCell id="ExSx5SIZApUU_Iw7rpWn-52" value="etcd" style="rounded=1;whiteSpace=wrap;html=1;fillColor=#1ba1e2;strokeColor=#006EAF;direction=north;textDirection=vertical-rl;rotation=-180;fontColor=#ffffff;" parent="ExSx5SIZApUU_Iw7rpWn-6" vertex="1">
          <mxGeometry x="-450" y="-530" width="40" height="590" as="geometry" />
        </mxCell>
        <mxCell id="ExSx5SIZApUU_Iw7rpWn-54" value="Glance" style="rounded=1;whiteSpace=wrap;html=1;fillColor=#e3c800;strokeColor=#B09500;fontColor=#000000;" parent="ExSx5SIZApUU_Iw7rpWn-6" vertex="1">
          <mxGeometry x="-400" y="-30" width="240" height="40" as="geometry" />
        </mxCell>
        <mxCell id="ExSx5SIZApUU_Iw7rpWn-55" value="Placement" style="rounded=1;whiteSpace=wrap;html=1;fillColor=#e3c800;strokeColor=#B09500;fontColor=#000000;" parent="ExSx5SIZApUU_Iw7rpWn-6" vertex="1">
          <mxGeometry x="-400" y="-80" width="240" height="40" as="geometry" />
        </mxCell>
        <mxCell id="ExSx5SIZApUU_Iw7rpWn-56" value="Nova" style="rounded=1;whiteSpace=wrap;html=1;fillColor=#e3c800;strokeColor=#B09500;fontColor=#000000;" parent="ExSx5SIZApUU_Iw7rpWn-6" vertex="1">
          <mxGeometry x="-400" y="-130" width="240" height="40" as="geometry" />
        </mxCell>
        <mxCell id="ExSx5SIZApUU_Iw7rpWn-58" value="Neutron" style="rounded=1;whiteSpace=wrap;html=1;fillColor=#e3c800;strokeColor=#B09500;fontColor=#000000;" parent="ExSx5SIZApUU_Iw7rpWn-6" vertex="1">
          <mxGeometry x="-400" y="-180" width="240" height="40" as="geometry" />
        </mxCell>
        <mxCell id="ExSx5SIZApUU_Iw7rpWn-60" value="" style="endArrow=none;html=1;rounded=0;dashed=1;dashPattern=8 8;" parent="ExSx5SIZApUU_Iw7rpWn-6" edge="1">
          <mxGeometry width="50" height="50" relative="1" as="geometry">
            <mxPoint x="420" y="180" as="sourcePoint" />
            <mxPoint x="420" y="-550" as="targetPoint" />
          </mxGeometry>
        </mxCell>
        <mxCell id="ExSx5SIZApUU_Iw7rpWn-61" value="" style="endArrow=none;html=1;rounded=0;dashed=1;dashPattern=8 8;" parent="ExSx5SIZApUU_Iw7rpWn-6" edge="1">
          <mxGeometry width="50" height="50" relative="1" as="geometry">
            <mxPoint x="140" y="180" as="sourcePoint" />
            <mxPoint x="140" y="-550" as="targetPoint" />
          </mxGeometry>
        </mxCell>
        <mxCell id="cqkGdE5jOxsWHkqsSoji-1" value="Octavia" style="rounded=1;whiteSpace=wrap;html=1;fillColor=#e3c800;strokeColor=#B09500;fontColor=#000000;" parent="ExSx5SIZApUU_Iw7rpWn-6" vertex="1">
          <mxGeometry x="-400" y="-230" width="240" height="40" as="geometry" />
        </mxCell>
        <mxCell id="nfMndtaqAt7SIkyzc18q-0" value="Heat" style="rounded=1;whiteSpace=wrap;html=1;fillColor=#e3c800;strokeColor=#B09500;fontColor=#000000;" parent="ExSx5SIZApUU_Iw7rpWn-6" vertex="1">
          <mxGeometry x="-400" y="-280" width="240" height="40" as="geometry" />
        </mxCell>
        <mxCell id="UXSxnWDJ8inHhZq6t_YR-0" value="Cinder" style="rounded=1;whiteSpace=wrap;html=1;fillColor=#e3c800;strokeColor=#B09500;fontColor=#000000;" parent="ExSx5SIZApUU_Iw7rpWn-6" vertex="1">
          <mxGeometry x="-400" y="-330" width="240" height="40" as="geometry" />
        </mxCell>
        <mxCell id="FE9gcxEgiFbbb8fEMV-Z-0" value="" style="endArrow=none;html=1;rounded=0;dashed=1;dashPattern=8 8;" parent="ExSx5SIZApUU_Iw7rpWn-6" edge="1">
          <mxGeometry width="50" height="50" relative="1" as="geometry">
            <mxPoint x="-140" y="180" as="sourcePoint" />
            <mxPoint x="-140" y="-550" as="targetPoint" />
          </mxGeometry>
        </mxCell>
        <mxCell id="FE9gcxEgiFbbb8fEMV-Z-1" value="&lt;font style=&quot;font-size: 18px;&quot;&gt;Compute Node&lt;/font&gt;" style="rounded=1;whiteSpace=wrap;html=1;fillColor=#dae8fc;strokeColor=#6c8ebf;" parent="ExSx5SIZApUU_Iw7rpWn-6" vertex="1">
          <mxGeometry x="-120" y="120" width="240" height="40" as="geometry" />
        </mxCell>
        <mxCell id="FE9gcxEgiFbbb8fEMV-Z-2" value="&lt;font style=&quot;font-size: 14px;&quot;&gt;CentOS 8 Stream&lt;/font&gt;" style="rounded=1;whiteSpace=wrap;html=1;fillColor=#008a00;strokeColor=#005700;fontColor=#ffffff;" parent="ExSx5SIZApUU_Iw7rpWn-6" vertex="1">
          <mxGeometry x="-120" y="70" width="240" height="40" as="geometry" />
        </mxCell>
        <mxCell id="FE9gcxEgiFbbb8fEMV-Z-3" value="Nova" style="rounded=1;whiteSpace=wrap;html=1;fillColor=#e3c800;strokeColor=#B09500;fontColor=#000000;" parent="ExSx5SIZApUU_Iw7rpWn-6" vertex="1">
          <mxGeometry x="-120" y="20" width="240" height="40" as="geometry" />
        </mxCell>
        <mxCell id="FE9gcxEgiFbbb8fEMV-Z-4" value="Neutron" style="rounded=1;whiteSpace=wrap;html=1;fillColor=#e3c800;strokeColor=#B09500;fontColor=#000000;" parent="ExSx5SIZApUU_Iw7rpWn-6" vertex="1">
          <mxGeometry x="-120" y="-30" width="240" height="40" as="geometry" />
        </mxCell>
        <mxCell id="FE9gcxEgiFbbb8fEMV-Z-5" value="Octavia" style="rounded=1;whiteSpace=wrap;html=1;fillColor=#e3c800;strokeColor=#B09500;fontColor=#000000;" parent="ExSx5SIZApUU_Iw7rpWn-6" vertex="1">
          <mxGeometry x="-120" y="-80" width="240" height="40" as="geometry" />
        </mxCell>
        <mxCell id="FE9gcxEgiFbbb8fEMV-Z-6" value="Libvirt" style="rounded=1;whiteSpace=wrap;html=1;fillColor=#1ba1e2;strokeColor=#006EAF;fontColor=#ffffff;" parent="ExSx5SIZApUU_Iw7rpWn-6" vertex="1">
          <mxGeometry x="160" y="20" width="240" height="40" as="geometry" />
        </mxCell>
        <mxCell id="Rg1cLYUm3Q4XtJa6wtt7-0" value="Ironic" style="rounded=1;whiteSpace=wrap;html=1;fillColor=#e3c800;strokeColor=#B09500;fontColor=#000000;" parent="ExSx5SIZApUU_Iw7rpWn-6" vertex="1">
          <mxGeometry x="-400" y="-380" width="240" height="40" as="geometry" />
        </mxCell>
        <mxCell id="03kAmSWon8uzNt5A-gDy-0" value="Ceilometer" style="rounded=1;whiteSpace=wrap;html=1;fillColor=#e3c800;strokeColor=#B09500;fontColor=#000000;" vertex="1" parent="ExSx5SIZApUU_Iw7rpWn-6">
          <mxGeometry x="-400" y="-430" width="240" height="40" as="geometry" />
        </mxCell>
        <mxCell id="03kAmSWon8uzNt5A-gDy-1" value="Aodb" style="rounded=1;whiteSpace=wrap;html=1;fillColor=#e3c800;strokeColor=#B09500;fontColor=#000000;" vertex="1" parent="ExSx5SIZApUU_Iw7rpWn-6">
          <mxGeometry x="-400" y="-480" width="240" height="40" as="geometry" />
        </mxCell>
        <mxCell id="03kAmSWon8uzNt5A-gDy-2" value="Cyborg" style="rounded=1;whiteSpace=wrap;html=1;fillColor=#e3c800;strokeColor=#B09500;fontColor=#000000;" vertex="1" parent="ExSx5SIZApUU_Iw7rpWn-6">
          <mxGeometry x="-120" y="-130" width="240" height="40" as="geometry" />
        </mxCell>
        <mxCell id="03kAmSWon8uzNt5A-gDy-3" value="Cyborg" style="rounded=1;whiteSpace=wrap;html=1;fillColor=#e3c800;strokeColor=#B09500;fontColor=#000000;" vertex="1" parent="ExSx5SIZApUU_Iw7rpWn-6">
          <mxGeometry x="-400" y="-530" width="240" height="40" as="geometry" />
        </mxCell>
      </root>
    </mxGraphModel>
  </diagram>
</mxfile>
